<svg width="2812" height="345" viewBox="0 0 2812 345" fill="none" xmlns="http://www.w3.org/2000/svg">
<rect x="2204" y="8" width="608" height="324" rx="10" fill="#181818"/>
<path d="M2291.38 271.112V248.072C2291.38 243.805 2293.43 241.672 2297.53 241.672H2319.54C2323.81 241.672 2325.94 243.805 2325.94 248.072V271.112C2325.94 275.037 2323.81 277 2319.54 277H2297.53C2295.65 277 2294.11 276.488 2292.92 275.464C2291.9 274.269 2291.38 272.819 2291.38 271.112ZM2347.88 171.272V141.064H2457.71V171.272L2399.34 246.536H2457.71V276.744H2351.72V246.792L2412.65 171.272H2347.88ZM2471.18 188.168V176.392C2471.18 151.987 2482.96 139.784 2506.51 139.784C2546.96 139.784 2571.19 142.088 2579.21 146.696V169.224H2517.52C2515.3 169.224 2513.42 169.395 2511.88 169.736C2510.52 170.077 2509.49 170.675 2508.81 171.528C2508.13 172.381 2507.62 173.32 2507.28 174.344C2507.11 175.368 2507.02 176.819 2507.02 178.696V184.84C2507.02 188.765 2507.87 191.24 2509.58 192.264C2511.29 193.117 2513.93 193.544 2517.52 193.544H2549.77C2556.09 193.544 2561.55 194.483 2566.16 196.36C2570.93 198.067 2574.69 200.541 2577.42 203.784C2580.32 207.027 2582.45 210.781 2583.82 215.048C2585.19 219.144 2585.87 223.667 2585.87 228.616V242.696C2585.87 263.176 2577.25 274.867 2560.01 277.768C2557.62 278.109 2555.15 278.28 2552.59 278.28C2509.58 278.28 2484.32 275.805 2476.81 270.856V248.584H2541.07C2547.04 248.584 2550.03 245.683 2550.03 239.88V233.48C2550.03 231.432 2549.77 229.811 2549.26 228.616C2548.92 227.421 2548.07 226.483 2546.7 225.8C2545.33 225.117 2543.46 224.776 2541.07 224.776H2509.32C2496.87 224.776 2487.39 221.875 2480.91 216.072C2474.42 210.269 2471.18 200.968 2471.18 188.168ZM2605.02 277V76.552H2640.6V155.656C2643.16 153.779 2644.79 152.584 2645.47 152.072C2646.32 151.56 2647.94 150.451 2650.33 148.744C2652.89 147.037 2654.77 145.928 2655.96 145.416C2657.16 144.904 2659.04 144.136 2661.6 143.112C2664.16 141.917 2666.37 141.149 2668.25 140.808C2670.3 140.296 2672.69 139.869 2675.42 139.528C2678.15 139.016 2680.97 138.76 2683.87 138.76C2711 138.76 2724.57 154.632 2724.57 186.376V277H2688.73V185.864C2688.73 179.379 2687.37 174.685 2684.64 171.784C2682.08 168.883 2678.41 167.432 2673.63 167.432C2668.85 167.432 2664.58 167.944 2660.83 168.968C2657.24 169.821 2653.92 171.101 2650.84 172.808C2647.94 174.344 2644.61 176.477 2640.86 179.208V277H2605.02Z" fill="white"/>
<path d="M1483.36 344.12V139.064H1496.93L1501.79 154.168C1506.06 151.096 1513.57 147.597 1524.32 143.672C1535.07 139.576 1544.37 137.528 1552.22 137.528C1561.1 137.528 1568.61 139.576 1574.75 143.672C1580.9 147.768 1585.5 153.4 1588.58 160.568C1591.65 167.565 1593.78 174.819 1594.98 182.328C1596.34 189.667 1597.02 197.688 1597.02 206.392C1597.02 216.291 1596.43 224.995 1595.23 232.504C1594.21 239.843 1592.16 247.181 1589.09 254.52C1586.19 261.688 1581.58 267.235 1575.26 271.16C1569.12 275.085 1561.44 277.048 1552.22 277.048C1545.91 277.048 1537.8 276.109 1527.9 274.232C1518.18 272.355 1509.47 269.88 1501.79 266.808V344.12H1483.36ZM1501.79 251.448C1518.86 255.885 1535.67 258.104 1552.22 258.104C1561.1 258.104 1567.58 254.435 1571.68 247.096C1575.95 239.757 1578.08 226.189 1578.08 206.392C1578.08 173.112 1569.46 156.472 1552.22 156.472C1537.89 156.472 1521.08 160.397 1501.79 168.248V251.448ZM1625.11 226.616V74.552H1644.05V226.616C1644.05 237.027 1645.25 244.28 1647.64 248.376C1650.03 252.301 1653.7 254.861 1658.65 256.056C1672.64 259.64 1680.24 261.432 1681.43 261.432V275H1658.9C1636.37 275 1625.11 258.872 1625.11 226.616ZM1699.3 233.784V139.064H1718.24V233.784C1718.24 241.805 1720.38 247.949 1724.64 252.216C1728.91 256.312 1734.46 258.36 1741.28 258.36C1747.77 258.36 1753.91 257.677 1759.72 256.312C1765.52 254.947 1770.13 253.581 1773.54 252.216C1777.12 250.68 1783.1 247.864 1791.46 243.768V139.064H1810.4V275H1797.09L1791.46 259.128C1790.95 259.299 1789.07 260.408 1785.83 262.456C1782.59 264.333 1780.54 265.443 1779.68 265.784C1779 266.125 1777.21 267.149 1774.31 268.856C1771.41 270.392 1769.36 271.331 1768.16 271.672C1766.97 272.013 1765.01 272.696 1762.28 273.72C1759.55 274.744 1757.24 275.427 1755.36 275.768C1753.66 276.109 1751.52 276.451 1748.96 276.792C1746.4 277.133 1743.84 277.304 1741.28 277.304C1728.31 277.304 1718.07 273.037 1710.56 264.504C1703.05 255.971 1699.3 245.731 1699.3 233.784ZM1838.04 245.56C1838.04 240.781 1839.32 236.344 1841.88 232.248C1844.44 227.981 1848.19 225.336 1853.14 224.312C1843.24 217.997 1838.29 205.539 1838.29 186.936C1838.29 171.064 1842.13 159.032 1849.81 150.84C1857.66 142.648 1868.59 138.552 1882.58 138.552H1962.45V152.888L1941.72 157.496C1941.89 157.837 1942.49 158.947 1943.51 160.824C1944.53 162.531 1945.3 163.981 1945.81 165.176C1946.33 166.2 1946.92 167.821 1947.61 170.04C1948.29 172.088 1948.8 174.563 1949.14 177.464C1949.48 180.195 1949.65 183.352 1949.65 186.936C1949.65 191.715 1949.06 196.579 1947.86 201.528C1946.84 206.477 1944.96 211.853 1942.23 217.656C1939.5 223.288 1935.15 227.896 1929.17 231.48C1923.2 235.064 1915.95 236.856 1907.41 236.856H1867.48C1860.48 236.856 1856.98 239.416 1856.98 244.536C1856.98 250.339 1860.48 253.24 1867.48 253.24H1922.01C1932.42 253.24 1940.52 256.483 1946.33 262.968C1952.13 269.283 1955.03 277.816 1955.03 288.568V304.696C1955.03 309.304 1954.52 313.571 1953.49 317.496C1952.64 321.421 1950.93 325.517 1948.37 329.784C1945.98 334.221 1942.06 337.72 1936.6 340.28C1931.14 342.84 1924.48 344.12 1916.63 344.12H1878.23C1865.77 344.12 1855.79 340.792 1848.28 334.136C1840.94 327.48 1837.27 317.667 1837.27 304.696V282.936L1847.51 266.296C1841.2 261.859 1838.04 254.947 1838.04 245.56ZM1856.21 304.696C1856.21 318.349 1863.55 325.176 1878.23 325.176H1916.63C1929.6 325.176 1936.09 318.349 1936.09 304.696V289.848C1936.09 283.363 1934.89 278.755 1932.5 276.024C1930.28 273.464 1925.68 272.184 1918.68 272.184H1867.73C1865.34 272.184 1863.21 272.013 1861.33 271.672C1859.46 271.331 1858.18 270.989 1857.49 270.648L1856.21 270.136V304.696ZM1857.24 186.936C1857.24 190.52 1857.58 193.933 1858.26 197.176C1858.94 200.419 1860.05 203.747 1861.59 207.16C1863.13 210.403 1865.52 213.048 1868.76 215.096C1872.17 216.973 1876.18 217.912 1880.79 217.912H1905.88C1910.49 217.912 1914.5 216.973 1917.91 215.096C1921.32 213.219 1923.88 210.744 1925.59 207.672C1927.47 204.6 1928.75 201.528 1929.43 198.456C1930.28 195.213 1930.71 191.971 1930.71 188.728C1930.71 188.045 1930.71 187.448 1930.71 186.936C1930.2 177.037 1928.24 169.699 1924.82 164.92C1921.41 159.971 1915.01 157.496 1905.62 157.496H1882.58C1865.69 157.496 1857.24 167.309 1857.24 186.936ZM1980.3 117.048V103.224C1980.3 98.9573 1982.35 96.824 1986.44 96.824H1999.24C2003.17 96.824 2005.13 98.9573 2005.13 103.224V117.048C2005.13 120.973 2003.17 122.936 1999.24 122.936H1986.44C1982.35 122.936 1980.3 120.973 1980.3 117.048ZM1982.86 275V139.064H2001.8V275H1982.86ZM2033.36 275V139.064H2046.67L2052.3 154.936C2052.82 154.765 2054.69 153.741 2057.94 151.864C2061.18 149.816 2063.14 148.621 2063.82 148.28C2064.68 147.939 2066.55 147 2069.46 145.464C2072.36 143.757 2074.41 142.733 2075.6 142.392C2076.79 142.051 2078.76 141.368 2081.49 140.344C2084.22 139.32 2086.44 138.637 2088.14 138.296C2090.02 137.955 2092.24 137.613 2094.8 137.272C2097.36 136.931 2099.92 136.76 2102.48 136.76C2115.45 136.76 2125.69 141.027 2133.2 149.56C2140.71 158.093 2144.46 168.333 2144.46 180.28V275H2125.52V180.28C2125.52 172.259 2123.39 166.2 2119.12 162.104C2114.85 157.837 2109.31 155.704 2102.48 155.704C2095.99 155.704 2089.85 156.387 2084.05 157.752C2078.25 159.117 2073.55 160.568 2069.97 162.104C2066.55 163.469 2060.67 166.2 2052.3 170.296V275H2033.36Z" fill="#181818"/>
<rect y="7" width="1431" height="324" rx="10" fill="#181818"/>
<path d="M33.96 248.888C33.96 243.085 35.24 238.051 37.8 233.784C40.5307 229.347 44.5413 226.275 49.832 224.568C48.4667 223.715 47.1867 222.691 45.992 221.496C44.7973 220.301 43.688 219.021 42.664 217.656C41.8107 216.291 40.9573 214.84 40.104 213.304C39.4213 211.597 38.7387 209.891 38.056 208.184C37.544 206.477 37.032 204.771 36.52 203.064C36.1787 201.187 35.8373 199.395 35.496 197.688C35.3253 195.811 35.1547 194.019 34.984 192.312C34.984 190.435 34.984 188.643 34.984 186.936C34.984 154.68 50.6853 138.552 82.088 138.552H164.776V160.056L149.672 164.664C149.672 164.664 149.928 165.347 150.44 166.712C150.952 167.907 151.208 168.675 151.208 169.016C151.379 169.187 151.635 169.869 151.976 171.064C152.488 172.259 152.829 173.197 153 173.88C153.171 174.563 153.341 175.587 153.512 176.952C153.853 178.317 154.024 179.683 154.024 181.048C154.195 182.243 154.365 183.779 154.536 185.656C154.707 187.363 154.792 189.24 154.792 191.288C154.792 193.848 154.621 196.408 154.28 198.968C153.939 201.357 153.427 203.917 152.744 206.648C152.061 209.379 151.123 211.939 149.928 214.328C148.904 216.717 147.539 219.107 145.832 221.496C144.125 223.715 142.077 225.763 139.688 227.64C137.299 229.517 134.568 231.139 131.496 232.504C128.595 233.869 125.096 234.979 121 235.832C117.075 236.515 112.808 236.856 108.2 236.856H76.712C74.8347 236.856 73.2987 236.941 72.104 237.112C70.9093 237.283 69.6293 237.88 68.264 238.904C67.0693 239.757 66.472 241.037 66.472 242.744C66.472 245.475 67.3253 247.352 69.032 248.376C70.9093 249.229 73.4693 249.656 76.712 249.656H118.44C131.069 249.656 140.883 253.069 147.88 259.896C155.048 266.552 158.632 276.621 158.632 290.104V304.696C158.632 307.256 158.461 309.645 158.12 311.864C157.779 314.253 157.267 316.643 156.584 319.032C156.072 321.421 155.219 323.64 154.024 325.688C152.829 327.907 151.464 329.955 149.928 331.832C148.392 333.709 146.515 335.331 144.296 336.696C142.077 338.232 139.603 339.512 136.872 340.536C134.141 341.731 130.984 342.584 127.4 343.096C123.987 343.779 120.232 344.12 116.136 344.12H77.736C69.3733 344.12 62.0347 342.755 55.72 340.024C49.576 337.293 44.6267 332.856 40.872 326.712C37.1173 320.739 35.24 313.4 35.24 304.696V287.544L47.272 275C45.3947 273.976 43.688 272.696 42.152 271.16C40.616 269.453 39.1653 267.491 37.8 265.272C36.6053 263.053 35.6667 260.579 34.984 257.848C34.3013 254.947 33.96 251.96 33.96 248.888ZM71.336 300.344C71.336 303.587 71.6773 306.232 72.36 308.28C73.2133 310.328 74.408 311.864 75.944 312.888C77.6507 313.912 79.272 314.595 80.808 314.936C82.5147 315.277 84.7333 315.448 87.464 315.448H108.456C111.699 315.448 114.259 315.021 116.136 314.168C118.184 313.485 119.635 312.461 120.488 311.096C121.512 309.731 122.195 308.28 122.536 306.744C122.877 305.208 123.048 303.331 123.048 301.112V291.128C123.048 290.104 122.963 289.165 122.792 288.312C122.621 287.459 122.451 286.605 122.28 285.752C122.109 285.069 121.768 284.387 121.256 283.704C120.915 283.192 120.488 282.595 119.976 281.912C119.464 281.4 118.867 280.973 118.184 280.632C117.501 280.291 116.733 279.949 115.88 279.608C115.027 279.267 114.088 279.011 113.064 278.84C112.04 278.669 110.931 278.584 109.736 278.584H82.088L71.336 277.816V300.344ZM70.824 186.936C70.824 200.931 76.2853 207.928 87.208 207.928H101.544C113.32 207.928 119.123 200.931 118.952 186.936C118.781 179.768 117.331 174.733 114.6 171.832C112.04 168.76 107.603 167.224 101.288 167.224H87.72C84.136 167.224 81.1493 167.821 78.76 169.016C76.5413 170.04 74.8347 171.576 73.64 173.624C72.616 175.501 71.848 177.464 71.336 179.512C70.9947 181.56 70.824 184.035 70.824 186.936ZM177.722 118.84V96.312C177.722 91.8747 179.77 89.656 183.866 89.656H210.746C214.501 89.656 216.378 91.8747 216.378 96.312V118.84C216.378 120.717 215.866 122.168 214.842 123.192C213.989 124.216 212.623 124.728 210.746 124.728H183.866C182.671 124.728 181.562 124.557 180.538 124.216C179.685 123.704 179.002 123.021 178.49 122.168C177.978 121.144 177.722 120.035 177.722 118.84ZM179.002 275V139.064H214.842V275H179.002ZM230.09 166.2V146.232L252.106 138.808L257.994 100.92H287.946V138.808H318.41V166.2H287.946V220.728C287.946 227.043 288.458 232.163 289.482 236.088C290.506 239.843 291.786 242.488 293.322 244.024C294.858 245.389 296.906 246.584 299.466 247.608C309.706 251.192 315.423 252.984 316.618 252.984V275H285.386C274.805 275 266.613 271.245 260.81 263.736C255.007 256.056 252.106 243.597 252.106 226.36V166.2H230.09ZM328.87 215.864V185.656H409.254V215.864H328.87ZM425.77 344.12V139.064H455.21L461.354 152.632C466.303 148.707 472.533 145.208 480.042 142.136C487.722 139.064 495.231 137.528 502.57 137.528C509.226 137.528 515.029 138.637 519.978 140.856C525.098 143.075 529.279 146.147 532.522 150.072C535.935 153.997 538.751 158.861 540.97 164.664C543.189 170.467 544.725 176.781 545.578 183.608C546.431 190.435 546.858 198.029 546.858 206.392C546.858 213.389 546.602 219.704 546.09 225.336C545.749 230.968 544.981 236.6 543.786 242.232C542.591 247.693 540.885 252.472 538.666 256.568C536.618 260.664 533.973 264.333 530.73 267.576C527.658 270.648 523.733 273.037 518.954 274.744C514.175 276.28 508.714 277.048 502.57 277.048C496.426 277.048 489.514 276.28 481.834 274.744C474.154 273.037 467.327 270.904 461.354 268.344V344.12H425.77ZM461.354 243.768C470.229 247.181 480.895 248.888 493.354 248.888C497.45 248.888 500.693 247.949 503.082 246.072C505.471 244.024 507.349 239.928 508.714 233.784C510.25 227.64 511.018 219.021 511.018 207.928C511.018 193.251 509.567 183.011 506.666 177.208C503.765 171.235 499.327 168.248 493.354 168.248C480.725 168.248 470.058 170.979 461.354 176.44V243.768ZM568.02 275V139.064H598.228L603.86 156.216C616.66 143.928 629.631 137.784 642.772 137.784C650.111 137.784 655.145 138.296 657.876 139.32V173.88C653.097 173.368 646.527 173.112 638.164 173.112C630.143 173.112 623.401 174.221 617.94 176.44C612.649 178.488 607.956 182.413 603.86 188.216V275H568.02ZM672.722 208.952C672.722 194.957 673.746 183.437 675.794 174.392C677.842 165.347 681.426 158.093 686.546 152.632C691.666 147.171 697.981 143.331 705.49 141.112C713.17 138.893 722.898 137.784 734.674 137.784C758.055 137.784 774.183 142.904 783.058 153.144C792.103 163.384 796.626 181.987 796.626 208.952C796.626 234.381 792.189 251.96 783.314 261.688C774.61 271.416 758.397 276.28 734.674 276.28C725.287 276.28 717.095 275.512 710.098 273.976C703.271 272.269 697.383 269.795 692.434 266.552C687.655 263.309 683.815 259.043 680.914 253.752C678.013 248.291 675.879 241.976 674.514 234.808C673.319 227.469 672.722 218.851 672.722 208.952ZM708.562 208.952C708.562 217.656 708.989 224.568 709.842 229.688C710.695 234.808 712.231 238.733 714.45 241.464C716.839 244.024 719.485 245.645 722.386 246.328C725.287 247.011 729.383 247.352 734.674 247.352C739.282 247.352 742.781 247.181 745.17 246.84C747.73 246.499 750.119 245.645 752.338 244.28C754.727 242.915 756.434 240.781 757.458 237.88C758.653 234.979 759.506 231.309 760.018 226.872C760.53 222.264 760.786 216.291 760.786 208.952C760.786 201.101 760.53 194.787 760.018 190.008C759.677 185.059 758.994 180.963 757.97 177.72C756.946 174.307 755.325 171.917 753.106 170.552C750.887 169.016 748.413 167.992 745.682 167.48C742.951 166.797 739.282 166.456 734.674 166.456C730.919 166.456 727.847 166.627 725.458 166.968C723.069 167.309 720.765 168.077 718.546 169.272C716.327 170.296 714.621 171.747 713.426 173.624C712.402 175.331 711.463 177.805 710.61 181.048C709.757 184.291 709.159 188.131 708.818 192.568C708.647 197.005 708.562 202.467 708.562 208.952ZM810.34 166.456V143.416L831.588 139.064V113.72C831.588 107.576 832.271 102.2 833.636 97.592C835.001 92.984 837.135 88.888 840.036 85.304C843.108 81.5493 847.289 78.7333 852.58 76.856C857.871 74.808 864.271 73.784 871.78 73.784C884.58 73.784 896.015 75.832 906.084 79.928V101.176L881.508 100.92C878.777 100.92 876.473 101.261 874.596 101.944C872.719 102.627 871.268 103.395 870.244 104.248C869.391 104.931 868.708 106.467 868.196 108.856C867.855 111.075 867.599 112.952 867.428 114.488C867.428 115.853 867.428 118.413 867.428 122.168V139.064H898.404V166.456H867.428V275H831.588V166.456H810.34ZM919.222 118.84V96.312C919.222 91.8747 921.27 89.656 925.366 89.656H952.246C956.001 89.656 957.878 91.8747 957.878 96.312V118.84C957.878 120.717 957.366 122.168 956.342 123.192C955.489 124.216 954.123 124.728 952.246 124.728H925.366C924.171 124.728 923.062 124.557 922.038 124.216C921.185 123.704 920.502 123.021 919.99 122.168C919.478 121.144 919.222 120.035 919.222 118.84ZM920.502 275V139.064H956.342V275H920.502ZM979.27 226.616V74.552H1015.11V220.984C1015.11 230.029 1016.05 236.344 1017.93 239.928C1019.8 243.512 1022.79 246.072 1026.89 247.608C1037.13 251.192 1042.84 252.984 1044.04 252.984V275H1014.34C1008.71 275 1003.76 274.147 999.494 272.44C995.227 270.733 991.558 268.088 988.486 264.504C985.414 260.749 983.11 255.715 981.574 249.4C980.038 243.085 979.27 235.491 979.27 226.616ZM1057.47 206.392C1057.47 194.616 1058.15 184.803 1059.52 176.952C1061.06 168.931 1063.19 162.36 1065.92 157.24C1068.65 151.949 1072.49 147.939 1077.44 145.208C1082.39 142.477 1087.85 140.6 1093.82 139.576C1099.97 138.552 1107.65 138.04 1116.86 138.04C1123.01 138.04 1128.21 138.211 1132.48 138.552C1136.75 138.723 1141.01 139.235 1145.28 140.088C1149.72 140.771 1153.3 141.88 1156.03 143.416C1158.76 144.781 1161.41 146.744 1163.97 149.304C1166.53 151.693 1168.49 154.68 1169.86 158.264C1171.39 161.677 1172.5 165.859 1173.18 170.808C1174.04 175.587 1174.46 181.133 1174.46 187.448C1174.46 199.395 1171.31 208.099 1164.99 213.56C1158.68 219.021 1149.21 221.752 1136.58 221.752H1093.31C1093.31 229.603 1094.42 235.491 1096.64 239.416C1099.03 243.171 1101.93 245.475 1105.34 246.328C1108.93 247.181 1114.47 247.608 1121.98 247.608C1142.98 247.608 1159.62 246.669 1171.9 244.792V269.112C1159.1 273.891 1135.89 276.28 1102.27 276.28C1093.57 276.28 1086.31 275 1080.51 272.44C1074.88 269.88 1070.36 265.699 1066.94 259.896C1063.53 254.093 1061.06 246.925 1059.52 238.392C1058.15 229.859 1057.47 219.192 1057.47 206.392ZM1093.31 195.896H1127.36C1134.87 195.896 1138.62 192.483 1138.62 185.656C1138.62 177.123 1137.43 171.661 1135.04 169.272C1132.82 166.712 1127.45 165.432 1118.91 165.432C1113.45 165.432 1109.35 165.688 1106.62 166.2C1104.06 166.541 1101.5 167.736 1098.94 169.784C1096.55 171.661 1094.93 174.648 1094.08 178.744C1093.4 182.84 1093.14 188.557 1093.31 195.896ZM1190.18 186.168V174.392C1190.18 149.987 1201.96 137.784 1225.51 137.784C1265.96 137.784 1290.19 140.088 1298.21 144.696V167.224H1236.52C1234.3 167.224 1232.42 167.395 1230.88 167.736C1229.52 168.077 1228.49 168.675 1227.81 169.528C1227.13 170.381 1226.62 171.32 1226.28 172.344C1226.11 173.368 1226.02 174.819 1226.02 176.696V182.84C1226.02 186.765 1226.87 189.24 1228.58 190.264C1230.29 191.117 1232.93 191.544 1236.52 191.544H1268.77C1275.09 191.544 1280.55 192.483 1285.16 194.36C1289.93 196.067 1293.69 198.541 1296.42 201.784C1299.32 205.027 1301.45 208.781 1302.82 213.048C1304.19 217.144 1304.87 221.667 1304.87 226.616V240.696C1304.87 261.176 1296.25 272.867 1279.01 275.768C1276.62 276.109 1274.15 276.28 1271.59 276.28C1228.58 276.28 1203.32 273.805 1195.81 268.856V246.584H1260.07C1266.04 246.584 1269.03 243.683 1269.03 237.88V231.48C1269.03 229.432 1268.77 227.811 1268.26 226.616C1267.92 225.421 1267.07 224.483 1265.7 223.8C1264.33 223.117 1262.46 222.776 1260.07 222.776H1228.32C1215.87 222.776 1206.39 219.875 1199.91 214.072C1193.42 208.269 1190.18 198.968 1190.18 186.168ZM1328.88 269.112V246.072C1328.88 241.805 1330.93 239.672 1335.03 239.672H1357.04C1361.31 239.672 1363.44 241.805 1363.44 246.072V269.112C1363.44 273.037 1361.31 275 1357.04 275H1335.03C1333.15 275 1331.61 274.488 1330.42 273.464C1329.4 272.269 1328.88 270.819 1328.88 269.112Z" fill="white"/>
</svg>
