<svg width="2812" height="347" viewBox="0 0 2812 347" fill="none" xmlns="http://www.w3.org/2000/svg">
<rect x="2204" y="7" width="608" height="324" rx="10" fill="#181818"/>
<path d="M2280.38 273.112V250.072C2280.38 245.805 2282.43 243.672 2286.53 243.672H2308.54C2312.81 243.672 2314.94 245.805 2314.94 250.072V273.112C2314.94 277.037 2312.81 279 2308.54 279H2286.53C2284.65 279 2283.11 278.488 2281.92 277.464C2280.9 276.269 2280.38 274.819 2280.38 273.112ZM2336.88 173.272V143.064H2446.71V173.272L2388.34 248.536H2446.71V278.744H2340.72V248.792L2401.65 173.272H2336.88ZM2460.18 190.168V178.392C2460.18 153.987 2471.96 141.784 2495.51 141.784C2535.96 141.784 2560.19 144.088 2568.21 148.696V171.224H2506.52C2504.3 171.224 2502.42 171.395 2500.88 171.736C2499.52 172.077 2498.49 172.675 2497.81 173.528C2497.13 174.381 2496.62 175.32 2496.28 176.344C2496.11 177.368 2496.02 178.819 2496.02 180.696V186.84C2496.02 190.765 2496.87 193.24 2498.58 194.264C2500.29 195.117 2502.93 195.544 2506.52 195.544H2538.77C2545.09 195.544 2550.55 196.483 2555.16 198.36C2559.93 200.067 2563.69 202.541 2566.42 205.784C2569.32 209.027 2571.45 212.781 2572.82 217.048C2574.19 221.144 2574.87 225.667 2574.87 230.616V244.696C2574.87 265.176 2566.25 276.867 2549.01 279.768C2546.62 280.109 2544.15 280.28 2541.59 280.28C2498.58 280.28 2473.32 277.805 2465.81 272.856V250.584H2530.07C2536.04 250.584 2539.03 247.683 2539.03 241.88V235.48C2539.03 233.432 2538.77 231.811 2538.26 230.616C2537.92 229.421 2537.07 228.483 2535.7 227.8C2534.33 227.117 2532.46 226.776 2530.07 226.776H2498.32C2485.87 226.776 2476.39 223.875 2469.91 218.072C2463.42 212.269 2460.18 202.968 2460.18 190.168ZM2594.02 279V78.552H2629.6V157.656C2632.16 155.779 2633.79 154.584 2634.47 154.072C2635.32 153.56 2636.94 152.451 2639.33 150.744C2641.89 149.037 2643.77 147.928 2644.96 147.416C2646.16 146.904 2648.04 146.136 2650.6 145.112C2653.16 143.917 2655.37 143.149 2657.25 142.808C2659.3 142.296 2661.69 141.869 2664.42 141.528C2667.15 141.016 2669.97 140.76 2672.87 140.76C2700 140.76 2713.57 156.632 2713.57 188.376V279H2677.73V187.864C2677.73 181.379 2676.37 176.685 2673.64 173.784C2671.08 170.883 2667.41 169.432 2662.63 169.432C2657.85 169.432 2653.58 169.944 2649.83 170.968C2646.24 171.821 2642.92 173.101 2639.84 174.808C2636.94 176.344 2633.61 178.477 2629.86 181.208V279H2594.02Z" fill="white"/>
<path d="M1477.36 346.12V141.064H1490.93L1495.79 156.168C1500.06 153.096 1507.57 149.597 1518.32 145.672C1529.07 141.576 1538.37 139.528 1546.22 139.528C1555.1 139.528 1562.61 141.576 1568.75 145.672C1574.9 149.768 1579.5 155.4 1582.58 162.568C1585.65 169.565 1587.78 176.819 1588.98 184.328C1590.34 191.667 1591.02 199.688 1591.02 208.392C1591.02 218.291 1590.43 226.995 1589.23 234.504C1588.21 241.843 1586.16 249.181 1583.09 256.52C1580.19 263.688 1575.58 269.235 1569.26 273.16C1563.12 277.085 1555.44 279.048 1546.22 279.048C1539.91 279.048 1531.8 278.109 1521.9 276.232C1512.18 274.355 1503.47 271.88 1495.79 268.808V346.12H1477.36ZM1495.79 253.448C1512.86 257.885 1529.67 260.104 1546.22 260.104C1555.1 260.104 1561.58 256.435 1565.68 249.096C1569.95 241.757 1572.08 228.189 1572.08 208.392C1572.08 175.112 1563.46 158.472 1546.22 158.472C1531.89 158.472 1515.08 162.397 1495.79 170.248V253.448ZM1619.11 228.616V76.552H1638.05V228.616C1638.05 239.027 1639.25 246.28 1641.64 250.376C1644.03 254.301 1647.7 256.861 1652.65 258.056C1666.64 261.64 1674.24 263.432 1675.43 263.432V277H1652.9C1630.37 277 1619.11 260.872 1619.11 228.616ZM1693.3 235.784V141.064H1712.24V235.784C1712.24 243.805 1714.38 249.949 1718.64 254.216C1722.91 258.312 1728.46 260.36 1735.28 260.36C1741.77 260.36 1747.91 259.677 1753.72 258.312C1759.52 256.947 1764.13 255.581 1767.54 254.216C1771.12 252.68 1777.1 249.864 1785.46 245.768V141.064H1804.4V277H1791.09L1785.46 261.128C1784.95 261.299 1783.07 262.408 1779.83 264.456C1776.59 266.333 1774.54 267.443 1773.68 267.784C1773 268.125 1771.21 269.149 1768.31 270.856C1765.41 272.392 1763.36 273.331 1762.16 273.672C1760.97 274.013 1759.01 274.696 1756.28 275.72C1753.55 276.744 1751.24 277.427 1749.36 277.768C1747.66 278.109 1745.52 278.451 1742.96 278.792C1740.4 279.133 1737.84 279.304 1735.28 279.304C1722.31 279.304 1712.07 275.037 1704.56 266.504C1697.05 257.971 1693.3 247.731 1693.3 235.784ZM1832.04 247.56C1832.04 242.781 1833.32 238.344 1835.88 234.248C1838.44 229.981 1842.19 227.336 1847.14 226.312C1837.24 219.997 1832.29 207.539 1832.29 188.936C1832.29 173.064 1836.13 161.032 1843.81 152.84C1851.66 144.648 1862.59 140.552 1876.58 140.552H1956.45V154.888L1935.72 159.496C1935.89 159.837 1936.49 160.947 1937.51 162.824C1938.53 164.531 1939.3 165.981 1939.81 167.176C1940.33 168.2 1940.92 169.821 1941.61 172.04C1942.29 174.088 1942.8 176.563 1943.14 179.464C1943.48 182.195 1943.65 185.352 1943.65 188.936C1943.65 193.715 1943.06 198.579 1941.86 203.528C1940.84 208.477 1938.96 213.853 1936.23 219.656C1933.5 225.288 1929.15 229.896 1923.17 233.48C1917.2 237.064 1909.95 238.856 1901.41 238.856H1861.48C1854.48 238.856 1850.98 241.416 1850.98 246.536C1850.98 252.339 1854.48 255.24 1861.48 255.24H1916.01C1926.42 255.24 1934.52 258.483 1940.33 264.968C1946.13 271.283 1949.03 279.816 1949.03 290.568V306.696C1949.03 311.304 1948.52 315.571 1947.49 319.496C1946.64 323.421 1944.93 327.517 1942.37 331.784C1939.98 336.221 1936.06 339.72 1930.6 342.28C1925.14 344.84 1918.48 346.12 1910.63 346.12H1872.23C1859.77 346.12 1849.79 342.792 1842.28 336.136C1834.94 329.48 1831.27 319.667 1831.27 306.696V284.936L1841.51 268.296C1835.2 263.859 1832.04 256.947 1832.04 247.56ZM1850.21 306.696C1850.21 320.349 1857.55 327.176 1872.23 327.176H1910.63C1923.6 327.176 1930.09 320.349 1930.09 306.696V291.848C1930.09 285.363 1928.89 280.755 1926.5 278.024C1924.28 275.464 1919.68 274.184 1912.68 274.184H1861.73C1859.34 274.184 1857.21 274.013 1855.33 273.672C1853.46 273.331 1852.18 272.989 1851.49 272.648L1850.21 272.136V306.696ZM1851.24 188.936C1851.24 192.52 1851.58 195.933 1852.26 199.176C1852.94 202.419 1854.05 205.747 1855.59 209.16C1857.13 212.403 1859.52 215.048 1862.76 217.096C1866.17 218.973 1870.18 219.912 1874.79 219.912H1899.88C1904.49 219.912 1908.5 218.973 1911.91 217.096C1915.32 215.219 1917.88 212.744 1919.59 209.672C1921.47 206.6 1922.75 203.528 1923.43 200.456C1924.28 197.213 1924.71 193.971 1924.71 190.728C1924.71 190.045 1924.71 189.448 1924.71 188.936C1924.2 179.037 1922.24 171.699 1918.82 166.92C1915.41 161.971 1909.01 159.496 1899.62 159.496H1876.58C1859.69 159.496 1851.24 169.309 1851.24 188.936ZM1974.3 119.048V105.224C1974.3 100.957 1976.35 98.824 1980.44 98.824H1993.24C1997.17 98.824 1999.13 100.957 1999.13 105.224V119.048C1999.13 122.973 1997.17 124.936 1993.24 124.936H1980.44C1976.35 124.936 1974.3 122.973 1974.3 119.048ZM1976.86 277V141.064H1995.8V277H1976.86ZM2027.36 277V141.064H2040.67L2046.3 156.936C2046.82 156.765 2048.69 155.741 2051.94 153.864C2055.18 151.816 2057.14 150.621 2057.82 150.28C2058.68 149.939 2060.55 149 2063.46 147.464C2066.36 145.757 2068.41 144.733 2069.6 144.392C2070.79 144.051 2072.76 143.368 2075.49 142.344C2078.22 141.32 2080.44 140.637 2082.14 140.296C2084.02 139.955 2086.24 139.613 2088.8 139.272C2091.36 138.931 2093.92 138.76 2096.48 138.76C2109.45 138.76 2119.69 143.027 2127.2 151.56C2134.71 160.093 2138.46 170.333 2138.46 182.28V277H2119.52V182.28C2119.52 174.259 2117.39 168.2 2113.12 164.104C2108.85 159.837 2103.31 157.704 2096.48 157.704C2089.99 157.704 2083.85 158.387 2078.05 159.752C2072.25 161.117 2067.55 162.568 2063.97 164.104C2060.55 165.469 2054.67 168.2 2046.3 172.296V277H2027.36Z" fill="white"/>
<rect y="7" width="1431" height="324" rx="10" fill="#181818"/>
<path d="M33.96 248.888C33.96 243.085 35.24 238.051 37.8 233.784C40.5307 229.347 44.5413 226.275 49.832 224.568C48.4667 223.715 47.1867 222.691 45.992 221.496C44.7973 220.301 43.688 219.021 42.664 217.656C41.8107 216.291 40.9573 214.84 40.104 213.304C39.4213 211.597 38.7387 209.891 38.056 208.184C37.544 206.477 37.032 204.771 36.52 203.064C36.1787 201.187 35.8373 199.395 35.496 197.688C35.3253 195.811 35.1547 194.019 34.984 192.312C34.984 190.435 34.984 188.643 34.984 186.936C34.984 154.68 50.6853 138.552 82.088 138.552H164.776V160.056L149.672 164.664C149.672 164.664 149.928 165.347 150.44 166.712C150.952 167.907 151.208 168.675 151.208 169.016C151.379 169.187 151.635 169.869 151.976 171.064C152.488 172.259 152.829 173.197 153 173.88C153.171 174.563 153.341 175.587 153.512 176.952C153.853 178.317 154.024 179.683 154.024 181.048C154.195 182.243 154.365 183.779 154.536 185.656C154.707 187.363 154.792 189.24 154.792 191.288C154.792 193.848 154.621 196.408 154.28 198.968C153.939 201.357 153.427 203.917 152.744 206.648C152.061 209.379 151.123 211.939 149.928 214.328C148.904 216.717 147.539 219.107 145.832 221.496C144.125 223.715 142.077 225.763 139.688 227.64C137.299 229.517 134.568 231.139 131.496 232.504C128.595 233.869 125.096 234.979 121 235.832C117.075 236.515 112.808 236.856 108.2 236.856H76.712C74.8347 236.856 73.2987 236.941 72.104 237.112C70.9093 237.283 69.6293 237.88 68.264 238.904C67.0693 239.757 66.472 241.037 66.472 242.744C66.472 245.475 67.3253 247.352 69.032 248.376C70.9093 249.229 73.4693 249.656 76.712 249.656H118.44C131.069 249.656 140.883 253.069 147.88 259.896C155.048 266.552 158.632 276.621 158.632 290.104V304.696C158.632 307.256 158.461 309.645 158.12 311.864C157.779 314.253 157.267 316.643 156.584 319.032C156.072 321.421 155.219 323.64 154.024 325.688C152.829 327.907 151.464 329.955 149.928 331.832C148.392 333.709 146.515 335.331 144.296 336.696C142.077 338.232 139.603 339.512 136.872 340.536C134.141 341.731 130.984 342.584 127.4 343.096C123.987 343.779 120.232 344.12 116.136 344.12H77.736C69.3733 344.12 62.0347 342.755 55.72 340.024C49.576 337.293 44.6267 332.856 40.872 326.712C37.1173 320.739 35.24 313.4 35.24 304.696V287.544L47.272 275C45.3947 273.976 43.688 272.696 42.152 271.16C40.616 269.453 39.1653 267.491 37.8 265.272C36.6053 263.053 35.6667 260.579 34.984 257.848C34.3013 254.947 33.96 251.96 33.96 248.888ZM71.336 300.344C71.336 303.587 71.6773 306.232 72.36 308.28C73.2133 310.328 74.408 311.864 75.944 312.888C77.6507 313.912 79.272 314.595 80.808 314.936C82.5147 315.277 84.7333 315.448 87.464 315.448H108.456C111.699 315.448 114.259 315.021 116.136 314.168C118.184 313.485 119.635 312.461 120.488 311.096C121.512 309.731 122.195 308.28 122.536 306.744C122.877 305.208 123.048 303.331 123.048 301.112V291.128C123.048 290.104 122.963 289.165 122.792 288.312C122.621 287.459 122.451 286.605 122.28 285.752C122.109 285.069 121.768 284.387 121.256 283.704C120.915 283.192 120.488 282.595 119.976 281.912C119.464 281.4 118.867 280.973 118.184 280.632C117.501 280.291 116.733 279.949 115.88 279.608C115.027 279.267 114.088 279.011 113.064 278.84C112.04 278.669 110.931 278.584 109.736 278.584H82.088L71.336 277.816V300.344ZM70.824 186.936C70.824 200.931 76.2853 207.928 87.208 207.928H101.544C113.32 207.928 119.123 200.931 118.952 186.936C118.781 179.768 117.331 174.733 114.6 171.832C112.04 168.76 107.603 167.224 101.288 167.224H87.72C84.136 167.224 81.1493 167.821 78.76 169.016C76.5413 170.04 74.8347 171.576 73.64 173.624C72.616 175.501 71.848 177.464 71.336 179.512C70.9947 181.56 70.824 184.035 70.824 186.936ZM177.722 118.84V96.312C177.722 91.8747 179.77 89.656 183.866 89.656H210.746C214.501 89.656 216.378 91.8747 216.378 96.312V118.84C216.378 120.717 215.866 122.168 214.842 123.192C213.989 124.216 212.623 124.728 210.746 124.728H183.866C182.671 124.728 181.562 124.557 180.538 124.216C179.685 123.704 179.002 123.021 178.49 122.168C177.978 121.144 177.722 120.035 177.722 118.84ZM179.002 275V139.064H214.842V275H179.002ZM230.09 166.2V146.232L252.106 138.808L257.994 100.92H287.946V138.808H318.41V166.2H287.946V220.728C287.946 227.043 288.458 232.163 289.482 236.088C290.506 239.843 291.786 242.488 293.322 244.024C294.858 245.389 296.906 246.584 299.466 247.608C309.706 251.192 315.423 252.984 316.618 252.984V275H285.386C274.805 275 266.613 271.245 260.81 263.736C255.007 256.056 252.106 243.597 252.106 226.36V166.2H230.09ZM328.87 215.864V185.656H409.254V215.864H328.87ZM425.77 344.12V139.064H455.21L461.354 152.632C466.303 148.707 472.533 145.208 480.042 142.136C487.722 139.064 495.231 137.528 502.57 137.528C509.226 137.528 515.029 138.637 519.978 140.856C525.098 143.075 529.279 146.147 532.522 150.072C535.935 153.997 538.751 158.861 540.97 164.664C543.189 170.467 544.725 176.781 545.578 183.608C546.431 190.435 546.858 198.029 546.858 206.392C546.858 213.389 546.602 219.704 546.09 225.336C545.749 230.968 544.981 236.6 543.786 242.232C542.591 247.693 540.885 252.472 538.666 256.568C536.618 260.664 533.973 264.333 530.73 267.576C527.658 270.648 523.733 273.037 518.954 274.744C514.175 276.28 508.714 277.048 502.57 277.048C496.426 277.048 489.514 276.28 481.834 274.744C474.154 273.037 467.327 270.904 461.354 268.344V344.12H425.77ZM461.354 243.768C470.229 247.181 480.895 248.888 493.354 248.888C497.45 248.888 500.693 247.949 503.082 246.072C505.471 244.024 507.349 239.928 508.714 233.784C510.25 227.64 511.018 219.021 511.018 207.928C511.018 193.251 509.567 183.011 506.666 177.208C503.765 171.235 499.327 168.248 493.354 168.248C480.725 168.248 470.058 170.979 461.354 176.44V243.768ZM568.02 275V139.064H598.228L603.86 156.216C616.66 143.928 629.631 137.784 642.772 137.784C650.111 137.784 655.145 138.296 657.876 139.32V173.88C653.097 173.368 646.527 173.112 638.164 173.112C630.143 173.112 623.401 174.221 617.94 176.44C612.649 178.488 607.956 182.413 603.86 188.216V275H568.02ZM672.722 208.952C672.722 194.957 673.746 183.437 675.794 174.392C677.842 165.347 681.426 158.093 686.546 152.632C691.666 147.171 697.981 143.331 705.49 141.112C713.17 138.893 722.898 137.784 734.674 137.784C758.055 137.784 774.183 142.904 783.058 153.144C792.103 163.384 796.626 181.987 796.626 208.952C796.626 234.381 792.189 251.96 783.314 261.688C774.61 271.416 758.397 276.28 734.674 276.28C725.287 276.28 717.095 275.512 710.098 273.976C703.271 272.269 697.383 269.795 692.434 266.552C687.655 263.309 683.815 259.043 680.914 253.752C678.013 248.291 675.879 241.976 674.514 234.808C673.319 227.469 672.722 218.851 672.722 208.952ZM708.562 208.952C708.562 217.656 708.989 224.568 709.842 229.688C710.695 234.808 712.231 238.733 714.45 241.464C716.839 244.024 719.485 245.645 722.386 246.328C725.287 247.011 729.383 247.352 734.674 247.352C739.282 247.352 742.781 247.181 745.17 246.84C747.73 246.499 750.119 245.645 752.338 244.28C754.727 242.915 756.434 240.781 757.458 237.88C758.653 234.979 759.506 231.309 760.018 226.872C760.53 222.264 760.786 216.291 760.786 208.952C760.786 201.101 760.53 194.787 760.018 190.008C759.677 185.059 758.994 180.963 757.97 177.72C756.946 174.307 755.325 171.917 753.106 170.552C750.887 169.016 748.413 167.992 745.682 167.48C742.951 166.797 739.282 166.456 734.674 166.456C730.919 166.456 727.847 166.627 725.458 166.968C723.069 167.309 720.765 168.077 718.546 169.272C716.327 170.296 714.621 171.747 713.426 173.624C712.402 175.331 711.463 177.805 710.61 181.048C709.757 184.291 709.159 188.131 708.818 192.568C708.647 197.005 708.562 202.467 708.562 208.952ZM810.34 166.456V143.416L831.588 139.064V113.72C831.588 107.576 832.271 102.2 833.636 97.592C835.001 92.984 837.135 88.888 840.036 85.304C843.108 81.5493 847.289 78.7333 852.58 76.856C857.871 74.808 864.271 73.784 871.78 73.784C884.58 73.784 896.015 75.832 906.084 79.928V101.176L881.508 100.92C878.777 100.92 876.473 101.261 874.596 101.944C872.719 102.627 871.268 103.395 870.244 104.248C869.391 104.931 868.708 106.467 868.196 108.856C867.855 111.075 867.599 112.952 867.428 114.488C867.428 115.853 867.428 118.413 867.428 122.168V139.064H898.404V166.456H867.428V275H831.588V166.456H810.34ZM919.222 118.84V96.312C919.222 91.8747 921.27 89.656 925.366 89.656H952.246C956.001 89.656 957.878 91.8747 957.878 96.312V118.84C957.878 120.717 957.366 122.168 956.342 123.192C955.489 124.216 954.123 124.728 952.246 124.728H925.366C924.171 124.728 923.062 124.557 922.038 124.216C921.185 123.704 920.502 123.021 919.99 122.168C919.478 121.144 919.222 120.035 919.222 118.84ZM920.502 275V139.064H956.342V275H920.502ZM979.27 226.616V74.552H1015.11V220.984C1015.11 230.029 1016.05 236.344 1017.93 239.928C1019.8 243.512 1022.79 246.072 1026.89 247.608C1037.13 251.192 1042.84 252.984 1044.04 252.984V275H1014.34C1008.71 275 1003.76 274.147 999.494 272.44C995.227 270.733 991.558 268.088 988.486 264.504C985.414 260.749 983.11 255.715 981.574 249.4C980.038 243.085 979.27 235.491 979.27 226.616ZM1057.47 206.392C1057.47 194.616 1058.15 184.803 1059.52 176.952C1061.06 168.931 1063.19 162.36 1065.92 157.24C1068.65 151.949 1072.49 147.939 1077.44 145.208C1082.39 142.477 1087.85 140.6 1093.82 139.576C1099.97 138.552 1107.65 138.04 1116.86 138.04C1123.01 138.04 1128.21 138.211 1132.48 138.552C1136.75 138.723 1141.01 139.235 1145.28 140.088C1149.72 140.771 1153.3 141.88 1156.03 143.416C1158.76 144.781 1161.41 146.744 1163.97 149.304C1166.53 151.693 1168.49 154.68 1169.86 158.264C1171.39 161.677 1172.5 165.859 1173.18 170.808C1174.04 175.587 1174.46 181.133 1174.46 187.448C1174.46 199.395 1171.31 208.099 1164.99 213.56C1158.68 219.021 1149.21 221.752 1136.58 221.752H1093.31C1093.31 229.603 1094.42 235.491 1096.64 239.416C1099.03 243.171 1101.93 245.475 1105.34 246.328C1108.93 247.181 1114.47 247.608 1121.98 247.608C1142.98 247.608 1159.62 246.669 1171.9 244.792V269.112C1159.1 273.891 1135.89 276.28 1102.27 276.28C1093.57 276.28 1086.31 275 1080.51 272.44C1074.88 269.88 1070.36 265.699 1066.94 259.896C1063.53 254.093 1061.06 246.925 1059.52 238.392C1058.15 229.859 1057.47 219.192 1057.47 206.392ZM1093.31 195.896H1127.36C1134.87 195.896 1138.62 192.483 1138.62 185.656C1138.62 177.123 1137.43 171.661 1135.04 169.272C1132.82 166.712 1127.45 165.432 1118.91 165.432C1113.45 165.432 1109.35 165.688 1106.62 166.2C1104.06 166.541 1101.5 167.736 1098.94 169.784C1096.55 171.661 1094.93 174.648 1094.08 178.744C1093.4 182.84 1093.14 188.557 1093.31 195.896ZM1190.18 186.168V174.392C1190.18 149.987 1201.96 137.784 1225.51 137.784C1265.96 137.784 1290.19 140.088 1298.21 144.696V167.224H1236.52C1234.3 167.224 1232.42 167.395 1230.88 167.736C1229.52 168.077 1228.49 168.675 1227.81 169.528C1227.13 170.381 1226.62 171.32 1226.28 172.344C1226.11 173.368 1226.02 174.819 1226.02 176.696V182.84C1226.02 186.765 1226.87 189.24 1228.58 190.264C1230.29 191.117 1232.93 191.544 1236.52 191.544H1268.77C1275.09 191.544 1280.55 192.483 1285.16 194.36C1289.93 196.067 1293.69 198.541 1296.42 201.784C1299.32 205.027 1301.45 208.781 1302.82 213.048C1304.19 217.144 1304.87 221.667 1304.87 226.616V240.696C1304.87 261.176 1296.25 272.867 1279.01 275.768C1276.62 276.109 1274.15 276.28 1271.59 276.28C1228.58 276.28 1203.32 273.805 1195.81 268.856V246.584H1260.07C1266.04 246.584 1269.03 243.683 1269.03 237.88V231.48C1269.03 229.432 1268.77 227.811 1268.26 226.616C1267.92 225.421 1267.07 224.483 1265.7 223.8C1264.33 223.117 1262.46 222.776 1260.07 222.776H1228.32C1215.87 222.776 1206.39 219.875 1199.91 214.072C1193.42 208.269 1190.18 198.968 1190.18 186.168ZM1328.88 269.112V246.072C1328.88 241.805 1330.93 239.672 1335.03 239.672H1357.04C1361.31 239.672 1363.44 241.805 1363.44 246.072V269.112C1363.44 273.037 1361.31 275 1357.04 275H1335.03C1333.15 275 1331.61 274.488 1330.42 273.464C1329.4 272.269 1328.88 270.819 1328.88 269.112Z" fill="white"/>
</svg>
